<svg id="svg" version="1.1" xmlns="http://www.w3.org/2000/svg" style="display: block;" viewBox="0 0 64 64"><path d="M0 0 C21.12 0 42.24 0 64 0 C64 21.12 64 42.24 64 64 C42.88 64 21.76 64 0 64 C0 42.88 0 21.76 0 0 Z " transform="translate(0,0)" style="fill: #FEFEFE;"/><path d="M0 0 C0.66 0 1.32 0 2 0 C2.24121582 0.95084473 2.24121582 0.95084473 2.48730469 1.92089844 C6.41786806 17.59996694 6.41786806 17.59996694 11.3359375 32.98828125 C12 35 12 35 12 37 C6.39636235 37.38538099 0.79189471 37.74266128 -4.81518555 38.07421875 C-6.72159553 38.19088812 -8.62755569 38.31517074 -10.53295898 38.44726562 C-13.27504544 38.63602986 -16.01759407 38.79718297 -18.76171875 38.953125 C-19.61086349 39.0175177 -20.46000824 39.0819104 -21.33488464 39.14825439 C-23.76049805 39.27050781 -23.76049805 39.27050781 -28 39 C-31.02661133 37.20605469 -31.02661133 37.20605469 -33 35 C-33.8125 31.75 -33.8125 31.75 -34 29 C-32.68 28.67 -31.36 28.34 -30 28 C-29.34 29.32 -28.68 30.64 -28 32 C-29.485 32.495 -29.485 32.495 -31 33 C-28.36893239 35.94729537 -28.36893239 35.94729537 -26 37 C-25.87625 35.72125 -25.7525 34.4425 -25.625 33.125 C-25.16209254 28.93927336 -24.40538329 24.87997505 -23.5390625 20.76171875 C-22.69917563 16.45882007 -22.09053483 12.12362579 -21.46484375 7.78515625 C-21 5 -21 5 -20 2 C-19.01 2 -18.02 2 -17 2 C-16.67 2.825 -16.34 3.65 -16 4.5 C-15.34 5.325 -14.68 6.15 -14 7 C-10.30381618 7.46544537 -6.7073558 7.2832445 -3 7 C-2.87625 6.21625 -2.7525 5.4325 -2.625 4.625 C-2 2 -2 2 0 0 Z " transform="translate(41,11)" style="fill: #FCFCFC;"/><path d="M0 0 C0.66 0 1.32 0 2 0 C2.24121582 0.95084473 2.24121582 0.95084473 2.48730469 1.92089844 C6.41786806 17.59996694 6.41786806 17.59996694 11.3359375 32.98828125 C12 35 12 35 12 37 C6.39636235 37.38538099 0.79189471 37.74266128 -4.81518555 38.07421875 C-6.72159553 38.19088812 -8.62755569 38.31517074 -10.53295898 38.44726562 C-13.27504544 38.63602986 -16.01759407 38.79718297 -18.76171875 38.953125 C-19.61086349 39.0175177 -20.46000824 39.0819104 -21.33488464 39.14825439 C-23.76049805 39.27050781 -23.76049805 39.27050781 -28 39 C-31.02661133 37.20605469 -31.02661133 37.20605469 -33 35 C-33.8125 31.75 -33.8125 31.75 -34 29 C-32.68 28.67 -31.36 28.34 -30 28 C-29.34 29.32 -28.68 30.64 -28 32 C-29.485 32.495 -29.485 32.495 -31 33 C-28.36893239 35.94729537 -28.36893239 35.94729537 -26 37 C-25.87625 35.72125 -25.7525 34.4425 -25.625 33.125 C-25.16209254 28.93927336 -24.40538329 24.87997505 -23.5390625 20.76171875 C-22.69917563 16.45882007 -22.09053483 12.12362579 -21.46484375 7.78515625 C-21 5 -21 5 -20 2 C-19.01 2 -18.02 2 -17 2 C-16.67 2.825 -16.34 3.65 -16 4.5 C-15.34 5.325 -14.68 6.15 -14 7 C-10.30381618 7.46544537 -6.7073558 7.2832445 -3 7 C-2.87625 6.21625 -2.7525 5.4325 -2.625 4.625 C-2 2 -2 2 0 0 Z M0 2 C-2.2236068 5.7018576 -2.2236068 5.7018576 -2 9 C-4.08412907 8.93976506 -6.16744435 8.85091679 -8.25 8.75 C-9.41015625 8.70359375 -10.5703125 8.6571875 -11.765625 8.609375 C-12.83296875 8.40828125 -13.9003125 8.2071875 -15 8 C-17.20214844 5.96191406 -17.20214844 5.96191406 -19 4 C-19.08040527 4.70084717 -19.16081055 5.40169434 -19.24365234 6.1237793 C-19.6135886 9.31256651 -19.99418373 12.49999459 -20.375 15.6875 C-20.50132813 16.79029297 -20.62765625 17.89308594 -20.7578125 19.02929688 C-20.88671875 20.09599609 -21.015625 21.16269531 -21.1484375 22.26171875 C-21.26364746 23.24100342 -21.37885742 24.22028809 -21.49755859 25.22924805 C-22 28 -22 28 -23.05322266 30.60864258 C-24.24541009 33.1911935 -24.24541009 33.1911935 -24 37 C-20.37479395 36.85903487 -16.74989159 36.71131601 -13.125 36.5625 C-12.11179687 36.52318359 -11.09859375 36.48386719 -10.0546875 36.44335938 C-3.66859697 36.17727227 2.64614103 35.69623316 9 35 C7.51787238 28.07191506 5.72758492 21.29206601 3.76757812 14.48632812 C2.59204833 10.34178653 1.60564999 6.26677012 1 2 C0.67 2 0.34 2 0 2 Z " transform="translate(41,11)" style="fill: #464646;"/><path d="M0 0 C0.33 0 0.66 0 1 0 C1.34611328 1.4540625 1.34611328 1.4540625 1.69921875 2.9375 C3.83161521 11.7030823 6.25959665 20.28707162 9.046875 28.8671875 C10 32 10 32 10 34 C5.71 33.67 1.42 33.34 -3 33 C-3 32.67 -3 32.34 -3 32 C0.3 32 3.6 32 7 32 C6.25943359 29.77443359 6.25943359 29.77443359 5.50390625 27.50390625 C4.85631368 25.52358694 4.20920387 23.54310971 3.5625 21.5625 C3.23701172 20.58861328 2.91152344 19.61472656 2.57617188 18.61132812 C0.65680402 12.69492619 -0.65186012 7.22220918 -1 1 C-0.67 0.67 -0.34 0.34 0 0 Z " transform="translate(43,14)" style="fill: #A1A1A1;"/><path d="M0 0 C0.66 0 1.32 0 2 0 C1.67 1.32 1.34 2.64 1 4 C0.67 3.67 0.34 3.34 0 3 C-0.66 4.98 -1.32 6.96 -2 9 C-4.08153935 9.13536022 -6.16561206 9.23215465 -8.25 9.3125 C-9.41015625 9.37050781 -10.5703125 9.42851562 -11.765625 9.48828125 C-12.83296875 9.32714844 -13.9003125 9.16601562 -15 9 C-17.421875 6.60546875 -17.421875 6.60546875 -19 4 C-19 3.34 -19 2.68 -19 2 C-18.34 2 -17.68 2 -17 2 C-16.690625 2.825 -16.38125 3.65 -16.0625 4.5 C-15.381875 5.325 -14.70125 6.15 -14 7 C-10.30360386 7.46478354 -6.70752761 7.28325763 -3 7 C-2.87625 6.21625 -2.7525 5.4325 -2.625 4.625 C-2 2 -2 2 0 0 Z " transform="translate(41,11)" style="fill: #5C5C5C;"/><path d="M0 0 C0.33 0 0.66 0 1 0 C1.31858441 8.76107118 0.11475017 17.33082684 -1 26 C-1.33 26 -1.66 26 -2 26 C-3.32950501 17.09231646 -2.86797108 8.60391324 0 0 Z " transform="translate(21,13)" style="fill: #8B8B8B;"/><path d="M0 0 C1.98 0.495 1.98 0.495 4 1 C4 2.32 4 3.64 4 5 C3.34 5 2.68 5 2 5 C4.63106761 7.94729537 4.63106761 7.94729537 7 9 C7.33 7.68 7.66 6.36 8 5 C8 6.65 8 8.3 8 10 C7.01 10.33 6.02 10.66 5 11 C2.375 9.4375 2.375 9.4375 0 7 C-0.875 3.8125 -0.875 3.8125 -1 1 C-0.67 0.67 -0.34 0.34 0 0 Z " transform="translate(8,39)" style="fill: #919191;"/><path d="M0 0 C0.33 0 0.66 0 1 0 C1.67404284 2.56076097 2.339414 5.12326583 3 7.6875 C3.37125 9.11449219 3.7425 10.54148437 4.125 12.01171875 C4.82716967 15.21223317 5.20437914 17.76186792 5 21 C4.34 20.67 3.68 20.34 3 20 C2.1764823 17.61383563 1.46452269 15.18861194 0.8125 12.75 C0.44769531 11.42484375 0.08289062 10.0996875 -0.29296875 8.734375 C-0.94692144 5.28034864 -1.00771435 3.31197837 0 0 Z " transform="translate(43,14)" style="fill: #858585;"/><path d="M0 0 C0.33 0 0.66 0 1 0 C1.22018299 6.05503233 0.47039847 11.11840613 -1 17 C-1.66 16.67 -2.32 16.34 -3 16 C-2.69075786 13.89535207 -2.3774944 11.7912947 -2.0625 9.6875 C-1.88847656 8.51574219 -1.71445312 7.34398437 -1.53515625 6.13671875 C-1 3 -1 3 0 0 Z " transform="translate(18,33)" style="fill: #444444;"/><path d="M0 0 C4.29 0 8.58 0 13 0 C13 0.66 13 1.32 13 2 C8.71 1.67 4.42 1.34 0 1 C0 0.67 0 0.34 0 0 Z " transform="translate(40,46)" style="fill: #858585;"/><path d="M0 0 C0.33 0 0.66 0 1 0 C1.33 3.3 1.66 6.6 2 10 C1.34 10 0.68 10 0 10 C-0.87890625 3.06640625 -0.87890625 3.06640625 -1 1 C-0.67 0.67 -0.34 0.34 0 0 Z " transform="translate(43,14)" style="fill: #6B6B6B;"/><path d="M0 0 C0.66 0 1.32 0 2 0 C1.67 1.32 1.34 2.64 1 4 C0.67 3.67 0.34 3.34 0 3 C-0.66 4.65 -1.32 6.3 -2 8 C-2.66 7.67 -3.32 7.34 -4 7 C-1.125 1.125 -1.125 1.125 0 0 Z " transform="translate(41,11)" style="fill: #404040;"/><path d="M0 0 C5.28 0 10.56 0 16 0 C16 0.33 16 0.66 16 1 C10.72 1 5.44 1 0 1 C0 0.67 0 0.34 0 0 Z " transform="translate(30,47)" style="fill: #474747;"/><path d="M0 0 C1.98 0.495 1.98 0.495 4 1 C4 2.32 4 3.64 4 5 C3.34 5 2.68 5 2 5 C1.67 4.01 1.34 3.02 1 2 C0.34 2.66 -0.32 3.32 -1 4 C-0.67 2.68 -0.34 1.36 0 0 Z " transform="translate(8,39)" style="fill: #545454;"/><path d="M0 0 C4.95 0 9.9 0 15 0 C15 0.33 15 0.66 15 1 C10.05 1 5.1 1 0 1 C0 0.67 0 0.34 0 0 Z " transform="translate(29,48)" style="fill: #B3B3B3;"/><path d="M0 0 C0.66 0 1.32 0 2 0 C3.03789581 1.64333504 4.03567924 3.31243867 5 5 C5.66 5.66 6.32 6.32 7 7 C5.68 6.67 4.36 6.34 3 6 C1.25 4.0625 1.25 4.0625 0 2 C0 1.34 0 0.68 0 0 Z " transform="translate(22,13)" style="fill: #575757;"/><path d="M0 0 C3.96 0 7.92 0 12 0 C12 0.33 12 0.66 12 1 C8.04 1 4.08 1 0 1 C0 0.67 0 0.34 0 0 Z " transform="translate(28,46)" style="fill: #C1C1C1;"/><path d="M0 0 C0.66 0.66 1.32 1.32 2 2 C1.34 3.32 0.68 4.64 0 6 C-0.66 5.01 -1.32 4.02 -2 3 C-1.34 2.01 -0.68 1.02 0 0 Z " transform="translate(9,40)" style="fill: #8D8D8D;"/><path d="M0 0 C3.63 0 7.26 0 11 0 C11 0.33 11 0.66 11 1 C7.37 1 3.74 1 0 1 C0 0.67 0 0.34 0 0 Z " transform="translate(17,49)" style="fill: #DBDBDB;"/><path d="M0 0 C2 3 2 3 2.125 6.6875 C2.08375 7.780625 2.0425 8.87375 2 10 C1.67 10 1.34 10 1 10 C0.67 6.7 0.34 3.4 0 0 Z " transform="translate(18,29)" style="fill: #8A8A8A;"/><path d="M0 0 C0.33 0 0.66 0 1 0 C1 2.97 1 5.94 1 9 C0.34 7.68 -0.32 6.36 -1 5 C-0.625 2.25 -0.625 2.25 0 0 Z " transform="translate(21,13)" style="fill: #949494;"/><path d="M0 0 C0.66 0 1.32 0 2 0 C2 1.65 2 3.3 2 5 C1.34 4.67 0.68 4.34 0 4 C0 2.68 0 1.36 0 0 Z " transform="translate(46,30)" style="fill: #818181;"/><path d="M0 0 C0.33 0.99 0.66 1.98 1 3 C2.98 3.495 2.98 3.495 5 4 C3.35 4 1.7 4 0 4 C0 2.68 0 1.36 0 0 Z " transform="translate(17,44)" style="fill: #AEAEAE;"/><path d="M0 0 C2.31 0 4.62 0 7 0 C6.67 0.66 6.34 1.32 6 2 C3.03 1.505 3.03 1.505 0 1 C0 0.67 0 0.34 0 0 Z " transform="translate(40,46)" style="fill: #757575;"/><path d="M0 0 C2.31 0 4.62 0 7 0 C7 0.33 7 0.66 7 1 C4.69 1 2.38 1 0 1 C0 0.67 0 0.34 0 0 Z " transform="translate(29,48)" style="fill: #A0A0A0;"/><path d="M0 0 C2.31 0 4.62 0 7 0 C7 0.33 7 0.66 7 1 C4.69 1 2.38 1 0 1 C0 0.67 0 0.34 0 0 Z " transform="translate(39,47)" style="fill: #3F3F3F;"/><path d="M0 0 C0.66 0 1.32 0 2 0 C1.67 0.99 1.34 1.98 1 3 C0.34 3 -0.32 3 -1 3 C-0.67 2.01 -0.34 1.02 0 0 Z " transform="translate(11,41)" style="fill: #8B8B8B;"/><path d="M0 0 C1.32 0.66 2.64 1.32 4 2 C2.35 2 0.7 2 -1 2 C-0.67 1.34 -0.34 0.68 0 0 Z " transform="translate(35,18)" style="fill: #6F6F6F;"/><path d="M0 0 C0.33 0.99 0.66 1.98 1 3 C0.34 3.66 -0.32 4.32 -1 5 C-0.67 3.35 -0.34 1.7 0 0 Z " transform="translate(43,14)" style="fill: #6D6D6D;"/><path d="M0 0 C0.33 1.32 0.66 2.64 1 4 C0.01 4.495 0.01 4.495 -1 5 C-0.67 3.35 -0.34 1.7 0 0 Z " transform="translate(18,33)" style="fill: #4B4B4B;"/><path d="M0 0 C0.33 1.32 0.66 2.64 1 4 C0.34 3.67 -0.32 3.34 -1 3 C-0.67 2.01 -0.34 1.02 0 0 Z " transform="translate(48,34)" style="fill: #969696;"/><path d="M0 0 C0.33 0 0.66 0 1 0 C1 1.98 1 3.96 1 6 C0.67 6 0.34 6 0 6 C0 4.02 0 2.04 0 0 Z " transform="translate(20,26)" style="fill: #AAAAAA;"/><path d="M0 0 C1.65 0 3.3 0 5 0 C5 0.33 5 0.66 5 1 C3.35 1 1.7 1 0 1 C0 0.67 0 0.34 0 0 Z " transform="translate(22,47)" style="fill: #686868;"/><path d="M0 0 C0.99 0.99 1.98 1.98 3 3 C2.01 2.67 1.02 2.34 0 2 C0 1.34 0 0.68 0 0 Z " transform="translate(9,45)" style="fill: #797979;"/><path d="M0 0 C0.33 1.32 0.66 2.64 1 4 C0.34 3.01 -0.32 2.02 -1 1 C-0.67 0.67 -0.34 0.34 0 0 Z " transform="translate(18,37)" style="fill: #3E3E3E;"/><path d="M0 0 C0.99 0.33 1.98 0.66 3 1 C1.68 1.33 0.36 1.66 -1 2 C-0.67 1.34 -0.34 0.68 0 0 Z " transform="translate(32,34)" style="fill: #898989;"/><path d="M0 0 C0.33 0 0.66 0 1 0 C1 1.65 1 3.3 1 5 C0.67 5 0.34 5 0 5 C0 3.35 0 1.7 0 0 Z " transform="translate(19,27)" style="fill: #4E4E4E;"/><path d="M0 0 C1.65 0 3.3 0 5 0 C5 0.33 5 0.66 5 1 C3.35 1 1.7 1 0 1 C0 0.67 0 0.34 0 0 Z " transform="translate(26,20)" style="fill: #AAAAAA;"/><path d="M0 0 C4 1 4 1 4 1 Z " transform="translate(17,49)" style="fill: #B6B6B6;"/><path d="M0 0 C4 1 4 1 4 1 Z " transform="translate(22,48)" style="fill: #3A3A3A;"/><path d="M0 0 C0.66 0.66 1.32 1.32 2 2 C1.01 1.67 0.02 1.34 -1 1 C-0.67 0.67 -0.34 0.34 0 0 Z " transform="translate(12,47)" style="fill: #909090;"/><path d="M0 0 C4 1 4 1 4 1 Z " transform="translate(36,46)" style="fill: #A7A7A7;"/><path d="M0 0 C4 1 4 1 4 1 Z " transform="translate(28,46)" style="fill: #DCDCDC;"/><path d="M0 0 C1 4 1 4 1 4 Z " transform="translate(16,39)" style="fill: #646464;"/><path d="M0 0 C0.33 0.99 0.66 1.98 1 3 C0.34 2.67 -0.32 2.34 -1 2 C-0.67 1.34 -0.34 0.68 0 0 Z " transform="translate(50,40)" style="fill: #ACACAC;"/><path d="M0 0 C0.66 0.66 1.32 1.32 2 2 C1.01 2.495 1.01 2.495 0 3 C0 2.01 0 1.02 0 0 Z " transform="translate(9,40)" style="fill: #F6F6F6;"/><path d="M0 0 C0.99 0.495 0.99 0.495 2 1 C1.34 1.66 0.68 2.32 0 3 C0 2.01 0 1.02 0 0 Z " transform="translate(7,40)" style="fill: #737373;"/><path d="M0 0 C1 4 1 4 1 4 Z " transform="translate(17,39)" style="fill: #2C2C2C;"/><path d="M0 0 C0.66 0 1.32 0 2 0 C2 0.66 2 1.32 2 2 C1.34 2 0.68 2 0 2 C0 1.34 0 0.68 0 0 Z " transform="translate(26,28)" style="fill: #717171;"/><path d="M0 0 C0.66 0 1.32 0 2 0 C2 0.66 2 1.32 2 2 C1.34 2 0.68 2 0 2 C0 1.34 0 0.68 0 0 Z " transform="translate(36,27)" style="fill: #323232;"/><path d="M0 0 C1 4 1 4 1 4 Z " transform="translate(19,20)" style="fill: #A1A1A1;"/><path d="M0 0 C1.485 0.99 1.485 0.99 3 2 C2.01 2 1.02 2 0 2 C0 1.34 0 0.68 0 0 Z " transform="translate(26,18)" style="fill: #404040;"/><path d="M0 0 C1 4 1 4 1 4 Z " transform="translate(21,18)" style="fill: #B0B0B0;"/><path d="M0 0 C1 4 1 4 1 4 Z " transform="translate(43,17)" style="fill: #424242;"/><path d="M0 0 C0 3 0 3 0 3 Z " transform="translate(41,13)" style="fill: #F1F1F1;"/><path d="M0 0 C0.66 0 1.32 0 2 0 C2 0.66 2 1.32 2 2 C1.34 2 0.68 2 0 2 C0 1.34 0 0.68 0 0 Z " transform="translate(22,13)" style="fill: #404040;"/><path d="M0 0 C1 4 1 4 1 4 Z " transform="translate(42,11)" style="fill: #5D5D5D;"/><path d="M0 0 C3 1 3 1 3 1 Z " transform="translate(21,49)" style="fill: #C7C7C7;"/><path d="M0 0 C0.33 0.66 0.66 1.32 1 2 C0.34 1.67 -0.32 1.34 -1 1 C-0.67 0.67 -0.34 0.34 0 0 Z " transform="translate(16,48)" style="fill: #3D3D3D;"/><path d="M0 0 C0.33 0.66 0.66 1.32 1 2 C0.34 1.67 -0.32 1.34 -1 1 C-0.67 0.67 -0.34 0.34 0 0 Z " transform="translate(14,48)" style="fill: #A9A9A9;"/><path d="M0 0 C3 1 3 1 3 1 Z " transform="translate(41,48)" style="fill: #D7D7D7;"/><path d="M0 0 C3 1 3 1 3 1 Z " transform="translate(29,48)" style="fill: #717171;"/><path d="M0 0 C3 1 3 1 3 1 Z " transform="translate(39,47)" style="fill: #262626;"/><path d="M0 0 C3 1 3 1 3 1 Z " transform="translate(40,46)" style="fill: #666666;"/><path d="" transform="translate(0,0)" style="fill: #C7C7C7;"/><path d="" transform="translate(0,0)" style="fill: #595959;"/><path d="M0 0 C0.33 0.66 0.66 1.32 1 2 C0.34 1.67 -0.32 1.34 -1 1 C-0.67 0.67 -0.34 0.34 0 0 Z " transform="translate(38,17)" style="fill: #404040;"/><path d="M0 0 C3 1 3 1 3 1 Z " transform="translate(27,18)" style="fill: #C6C6C6;"/><path d="M0 0 C0.66 0.66 1.32 1.32 2 2 C1.34 2 0.68 2 0 2 C0 1.34 0 0.68 0 0 Z " transform="translate(38,15)" style="fill: #3B3B3B;"/><path d="" transform="translate(0,0)" style="fill: #707070;"/><path d="M0 0 C2 1 2 1 2 1 Z " transform="translate(15,50)" style="fill: #C5C5C5;"/><path d="M0 0 C2 1 2 1 2 1 Z " transform="translate(17,49)" style="fill: #A1A1A1;"/><path d="M0 0 C2 1 2 1 2 1 Z " transform="translate(36,48)" style="fill: #A8A8A8;"/><path d="M0 0 C2 1 2 1 2 1 Z " transform="translate(32,48)" style="fill: #909090;"/><path d="M0 0 C2 1 2 1 2 1 Z " transform="translate(22,48)" style="fill: #262626;"/><path d="" transform="translate(0,0)" style="fill: #B6B6B6;"/><path d="M0 0 C2 1 2 1 2 1 Z " transform="translate(22,47)" style="fill: #717171;"/><path d="M0 0 C2 1 2 1 2 1 Z " transform="translate(20,47)" style="fill: #919191;"/><path d="M0 0 C2 1 2 1 2 1 Z " transform="translate(18,47)" style="fill: #C5C5C5;"/><path d="M0 0 C2 1 2 1 2 1 Z " transform="translate(50,46)" style="fill: #595959;"/><path d="M0 0 C2 1 2 1 2 1 Z " transform="translate(43,46)" style="fill: #777777;"/><path d="" transform="translate(0,0)" style="fill: #B3B3B3;"/><path d="" transform="translate(0,0)" style="fill: #A5A5A5;"/><path d="" transform="translate(0,0)" style="fill: #B5B5B5;"/><path d="" transform="translate(0,0)" style="fill: #BABABA;"/><path d="M0 0 C2 1 2 1 2 1 Z " transform="translate(16,43)" style="fill: #505050;"/><path d="M0 0 C2 1 2 1 2 1 Z " transform="translate(10,43)" style="fill: #7D7D7D;"/><path d="" transform="translate(0,0)" style="fill: #D7D7D7;"/><path d="" transform="translate(0,0)" style="fill: #BFBFBF;"/><path d="" transform="translate(0,0)" style="fill: #979797;"/><path d="" transform="translate(0,0)" style="fill: #929292;"/><path d="" transform="translate(0,0)" style="fill: #9D9D9D;"/><path d="M0 0 C2 1 2 1 2 1 Z " transform="translate(8,38)" style="fill: #DCDCDC;"/><path d="" transform="translate(0,0)" style="fill: #777777;"/><path d="" transform="translate(0,0)" style="fill: #AAAAAA;"/><path d="" transform="translate(0,0)" style="fill: #6F6F6F;"/><path d="M0 0 C2 1 2 1 2 1 Z " transform="translate(33,34)" style="fill: #3A3A3A;"/><path d="" transform="translate(0,0)" style="fill: #5F5F5F;"/><path d="" transform="translate(0,0)" style="fill: #999999;"/><path d="" transform="translate(0,0)" style="fill: #808080;"/><path d="" transform="translate(0,0)" style="fill: #DCDCDC;"/><path d="" transform="translate(0,0)" style="fill: #9E9E9E;"/><path d="" transform="translate(0,0)" style="fill: #282828;"/><path d="" transform="translate(0,0)" style="fill: #565656;"/><path d="M0 0 C2 1 2 1 2 1 Z " transform="translate(36,27)" style="fill: #868686;"/><path d="" transform="translate(0,0)" style="fill: #4E4E4E;"/><path d="" transform="translate(0,0)" style="fill: #CBCBCB;"/><path d="" transform="translate(0,0)" style="fill: #838383;"/><path d="" transform="translate(0,0)" style="fill: #B9B9B9;"/><path d="" transform="translate(0,0)" style="fill: #DCDCDC;"/><path d="M0 0 C2 1 2 1 2 1 Z " transform="translate(29,20)" style="fill: #DCDCDC;"/><path d="" transform="translate(0,0)" style="fill: #646464;"/><path d="" transform="translate(0,0)" style="fill: #A5A5A5;"/><path d="" transform="translate(0,0)" style="fill: #959595;"/><path d="" transform="translate(0,0)" style="fill: #333333;"/><path d="" transform="translate(0,0)" style="fill: #434343;"/><path d="M0 0 C2 1 2 1 2 1 Z " transform="translate(41,10)" style="fill: #C7C7C7;"/><path d="" transform="translate(0,0)" style="fill: #BABABA;"/><path d="" transform="translate(0,0)" style="fill: #818181;"/><path d="" transform="translate(0,0)" style="fill: #565656;"/><path d="" transform="translate(0,0)" style="fill: #DDDDDD;"/><path d="" transform="translate(0,0)" style="fill: #CACACA;"/><path d="" transform="translate(0,0)" style="fill: #BEBEBE;"/><path d="" transform="translate(0,0)" style="fill: #797979;"/><path d="" transform="translate(0,0)" style="fill: #606060;"/><path d="" transform="translate(0,0)" style="fill: #3C3C3C;"/><path d="" transform="translate(0,0)" style="fill: #474747;"/><path d="" transform="translate(0,0)" style="fill: #1C1C1C;"/><path d="" transform="translate(0,0)" style="fill: #747474;"/><path d="" transform="translate(0,0)" style="fill: #B9B9B9;"/><path d="" transform="translate(0,0)" style="fill: #7D7D7D;"/><path d="" transform="translate(0,0)" style="fill: #5A5A5A;"/><path d="" transform="translate(0,0)" style="fill: #343434;"/><path d="" transform="translate(0,0)" style="fill: #404040;"/><path d="" transform="translate(0,0)" style="fill: #535353;"/><path d="" transform="translate(0,0)" style="fill: #393939;"/><path d="" transform="translate(0,0)" style="fill: #585858;"/><path d="" transform="translate(0,0)" style="fill: #828282;"/><path d="" transform="translate(0,0)" style="fill: #ABABAB;"/><path d="" transform="translate(0,0)" style="fill: #DFDFDF;"/><path d="" transform="translate(0,0)" style="fill: #A8A8A8;"/><path d="" transform="translate(0,0)" style="fill: #C2C2C2;"/><path d="" transform="translate(0,0)" style="fill: #8C8C8C;"/><path d="" transform="translate(0,0)" style="fill: #9E9E9E;"/><path d="" transform="translate(0,0)" style="fill: #B0B0B0;"/><path d="" transform="translate(0,0)" style="fill: #CDCDCD;"/><path d="" transform="translate(0,0)" style="fill: #C3C3C3;"/><path d="" transform="translate(0,0)" style="fill: #666666;"/><path d="" transform="translate(0,0)" style="fill: #ACACAC;"/><path d="" transform="translate(0,0)" style="fill: #848484;"/><path d="" transform="translate(0,0)" style="fill: #2A2A2A;"/><path d="" transform="translate(0,0)" style="fill: #C2C2C2;"/><path d="" transform="translate(0,0)" style="fill: #E7E7E7;"/><path d="" transform="translate(0,0)" style="fill: #666666;"/><path d="" transform="translate(0,0)" style="fill: #D5D5D5;"/><path d="" transform="translate(0,0)" style="fill: #C5C5C5;"/><path d="" transform="translate(0,0)" style="fill: #D6D6D6;"/><path d="" transform="translate(0,0)" style="fill: #3D3D3D;"/><path d="" transform="translate(0,0)" style="fill: #D5D5D5;"/><path d="" transform="translate(0,0)" style="fill: #C2C2C2;"/><path d="" transform="translate(0,0)" style="fill: #3B3B3B;"/><path d="" transform="translate(0,0)" style="fill: #B2B2B2;"/><path d="" transform="translate(0,0)" style="fill: #EEEEEE;"/><path d="" transform="translate(0,0)" style="fill: #737373;"/><path d="" transform="translate(0,0)" style="fill: #B3B3B3;"/><path d="" transform="translate(0,0)" style="fill: #2F2F2F;"/><path d="" transform="translate(0,0)" style="fill: #878787;"/><path d="" transform="translate(0,0)" style="fill: #C8C8C8;"/><path d="" transform="translate(0,0)" style="fill: #DADADA;"/><path d="" transform="translate(0,0)" style="fill: #5C5C5C;"/><path d="" transform="translate(0,0)" style="fill: #AAAAAA;"/><path d="" transform="translate(0,0)" style="fill: #FFFFFF;"/><path d="" transform="translate(0,0)" style="fill: #999999;"/><path d="" transform="translate(0,0)" style="fill: #7D7D7D;"/><path d="" transform="translate(0,0)" style="fill: #BEBEBE;"/><path d="" transform="translate(0,0)" style="fill: #707070;"/><path d="" transform="translate(0,0)" style="fill: #212121;"/><path d="" transform="translate(0,0)" style="fill: #BDBDBD;"/><path d="" transform="translate(0,0)" style="fill: #C0C0C0;"/><path d="" transform="translate(0,0)" style="fill: #747474;"/><path d="" transform="translate(0,0)" style="fill: #CFCFCF;"/><path d="" transform="translate(0,0)" style="fill: #DDDDDD;"/><path d="" transform="translate(0,0)" style="fill: #4F4F4F;"/><path d="" transform="translate(0,0)" style="fill: #DFDFDF;"/><path d="" transform="translate(0,0)" style="fill: #CFCFCF;"/><path d="" transform="translate(0,0)" style="fill: #999999;"/><path d="" transform="translate(0,0)" style="fill: #BDBDBD;"/><path d="" transform="translate(0,0)" style="fill: #B9B9B9;"/><path d="" transform="translate(0,0)" style="fill: #B7B7B7;"/><path d="" transform="translate(0,0)" style="fill: #919191;"/><path d="" transform="translate(0,0)" style="fill: #CFCFCF;"/><path d="" transform="translate(0,0)" style="fill: #565656;"/><path d="" transform="translate(0,0)" style="fill: #DDDDDD;"/><path d="" transform="translate(0,0)" style="fill: #B7B7B7;"/><path d="" transform="translate(0,0)" style="fill: #D9D9D9;"/><path d="" transform="translate(0,0)" style="fill: #2D2D2D;"/><path d="" transform="translate(0,0)" style="fill: #7B7B7B;"/><path d="" transform="translate(0,0)" style="fill: #C8C8C8;"/><path d="" transform="translate(0,0)" style="fill: #9C9C9C;"/><path d="" transform="translate(0,0)" style="fill: #DFDFDF;"/><path d="" transform="translate(0,0)" style="fill: #A8A8A8;"/><path d="" transform="translate(0,0)" style="fill: #707070;"/><path d="" transform="translate(0,0)" style="fill: #606060;"/><path d="" transform="translate(0,0)" style="fill: #808080;"/><path d="" transform="translate(0,0)" style="fill: #C9C9C9;"/><path d="" transform="translate(0,0)" style="fill: #C4C4C4;"/><path d="" transform="translate(0,0)" style="fill: #AFAFAF;"/><path d="" transform="translate(0,0)" style="fill: #DCDCDC;"/><path d="" transform="translate(0,0)" style="fill: #CACACA;"/><path d="" transform="translate(0,0)" style="fill: #939393;"/><path d="" transform="translate(0,0)" style="fill: #525252;"/><path d="" transform="translate(0,0)" style="fill: #AFAFAF;"/><path d="" transform="translate(0,0)" style="fill: #919191;"/><path d="" transform="translate(0,0)" style="fill: #6B6B6B;"/><path d="" transform="translate(0,0)" style="fill: #CACACA;"/><path d="" transform="translate(0,0)" style="fill: #7B7B7B;"/><path d="" transform="translate(0,0)" style="fill: #AAAAAA;"/><path d="" transform="translate(0,0)" style="fill: #888888;"/><path d="" transform="translate(0,0)" style="fill: #BDBDBD;"/><path d="" transform="translate(0,0)" style="fill: #A5A5A5;"/><path d="" transform="translate(0,0)" style="fill: #AFAFAF;"/><path d="" transform="translate(0,0)" style="fill: #D6D6D6;"/><path d="" transform="translate(0,0)" style="fill: #767676;"/><path d="" transform="translate(0,0)" style="fill: #8E8E8E;"/><path d="" transform="translate(0,0)" style="fill: #5E5E5E;"/><path d="" transform="translate(0,0)" style="fill: #CDCDCD;"/><path d="" transform="translate(0,0)" style="fill: #CECECE;"/><path d="" transform="translate(0,0)" style="fill: #C2C2C2;"/><path d="" transform="translate(0,0)" style="fill: #636363;"/><path d="" transform="translate(0,0)" style="fill: #CBCBCB;"/><path d="" transform="translate(0,0)" style="fill: #C7C7C7;"/><path d="" transform="translate(0,0)" style="fill: #BEBEBE;"/><path d="" transform="translate(0,0)" style="fill: #ACACAC;"/><path d="" transform="translate(0,0)" style="fill: #838383;"/><path d="" transform="translate(0,0)" style="fill: #656565;"/><path d="" transform="translate(0,0)" style="fill: #737373;"/><path d="" transform="translate(0,0)" style="fill: #ACACAC;"/><path d="" transform="translate(0,0)" style="fill: #383838;"/><path d="" transform="translate(0,0)" style="fill: #767676;"/><path d="" transform="translate(0,0)" style="fill: #515151;"/><path d="" transform="translate(0,0)" style="fill: #8A8A8A;"/><path d="" transform="translate(0,0)" style="fill: #DBDBDB;"/><path d="" transform="translate(0,0)" style="fill: #202020;"/><path d="" transform="translate(0,0)" style="fill: #B2B2B2;"/><path d="" transform="translate(0,0)" style="fill: #B5B5B5;"/><path d="" transform="translate(0,0)" style="fill: #353535;"/><path d="" transform="translate(0,0)" style="fill: #AAAAAA;"/><path d="" transform="translate(0,0)" style="fill: #7E7E7E;"/><path d="" transform="translate(0,0)" style="fill: #7C7C7C;"/><path d="" transform="translate(0,0)" style="fill: #909090;"/><path d="" transform="translate(0,0)" style="fill: #444444;"/><path d="" transform="translate(0,0)" style="fill: #A7A7A7;"/><path d="" transform="translate(0,0)" style="fill: #8E8E8E;"/><path d="" transform="translate(0,0)" style="fill: #606060;"/><path d="" transform="translate(0,0)" style="fill: #D6D6D6;"/><path d="" transform="translate(0,0)" style="fill: #696969;"/><path d="" transform="translate(0,0)" style="fill: #D9D9D9;"/><path d="" transform="translate(0,0)" style="fill: #BABABA;"/><path d="" transform="translate(0,0)" style="fill: #9C9C9C;"/><path d="" transform="translate(0,0)" style="fill: #3E3E3E;"/><path d="" transform="translate(0,0)" style="fill: #CECECE;"/><path d="" transform="translate(0,0)" style="fill: #B6B6B6;"/><path d="" transform="translate(0,0)" style="fill: #AFAFAF;"/><path d="" transform="translate(0,0)" style="fill: #838383;"/><path d="" transform="translate(0,0)" style="fill: #868686;"/><path d="" transform="translate(0,0)" style="fill: #313131;"/><path d="" transform="translate(0,0)" style="fill: #8E8E8E;"/><path d="" transform="translate(0,0)" style="fill: #505050;"/><path d="" transform="translate(0,0)" style="fill: #D8D8D8;"/><path d="" transform="translate(0,0)" style="fill: #A4A4A4;"/><path d="" transform="translate(0,0)" style="fill: #DCDCDC;"/><path d="" transform="translate(0,0)" style="fill: #727272;"/><path d="" transform="translate(0,0)" style="fill: #353535;"/><path d="" transform="translate(0,0)" style="fill: #B3B3B3;"/><path d="" transform="translate(0,0)" style="fill: #A4A4A4;"/></svg>