<svg id="svg" version="1.1" xmlns="http://www.w3.org/2000/svg" style="display: block; background: rgb(0, 0, 0);" viewBox="0 0 64 64"><path d="M0,0 L1,0 L1,1 L0,1 Z " transform="translate(13,48)" style="fill: #FFFFFF;"/><path d="M0,0 L1,0 L1,7 L0,7 L0,11 L-1,11 L-1,15 L5,15 L5,14 L22,14 L22,13 L31,13 L31,14 L30,14 L30,15 L14,15 L14,16 L-1,16 L-1,17 L-3,17 L-3,15 L-2,15 L-2,9 L-1,9 L-1,4 L0,4 Z " transform="translate(18,33)" style="fill: #FFFFFF;"/><path d="M0,0 L2,0 L2,1 L0,1 Z " transform="translate(50,46)" style="fill: #FFFFFF;"/><path d="M0,0 L1,0 L1,1 L2,1 L2,2 L0,2 Z " transform="translate(10,46)" style="fill: #FFFFFF;"/><path d="M0,0 L1,0 L1,1 L0,1 Z " transform="translate(9,45)" style="fill: #FFFFFF;"/><path d="M0,0 L1,0 L1,1 L0,1 Z " transform="translate(8,44)" style="fill: #FFFFFF;"/><path d="M0,0 L2,0 L2,1 L0,1 Z " transform="translate(10,43)" style="fill: #FFFFFF;"/><path d="M0,0 L1,0 L1,1 L0,1 Z " transform="translate(11,40)" style="fill: #FFFFFF;"/><path d="M0,0 L1,0 L1,3 L0,3 Z " transform="translate(7,40)" style="fill: #FFFFFF;"/><path d="M0,0 L3,0 L3,1 L0,1 Z " transform="translate(8,39)" style="fill: #FFFFFF;"/><path d="M0,0 L3,0 L3,1 L0,1 Z " transform="translate(32,34)" style="fill: #FFFFFF;"/><path d="M0,0 L1,0 L1,3 L0,3 Z " transform="translate(47,32)" style="fill: #FFFFFF;"/><path d="M0,0 L1,0 L1,2 L0,2 Z " transform="translate(46,29)" style="fill: #FFFFFF;"/><path d="M0,0 L2,0 L2,1 L0,1 Z " transform="translate(36,28)" style="fill: #FFFFFF;"/><path d="M0,0 L1,0 L1,1 L2,1 L2,2 L0,2 Z " transform="translate(26,28)" style="fill: #FFFFFF;"/><path d="M0,0 L1,0 L1,6 L0,6 Z " transform="translate(19,26)" style="fill: #FFFFFF;"/><path d="M0,0 L1,0 L1,3 L0,3 L0,5 L-1,5 L-1,6 L-4,6 L-4,5 L-5,5 L-5,6 L-13,6 L-13,5 L-14,5 L-14,3 L-13,3 L-13,4 L-12,4 L-12,5 L-9,5 L-9,4 L-1,4 L-1,2 L0,2 Z " transform="translate(39,14)" style="fill: #FFFFFF;"/><path d="M0,0 L1,0 L1,5 L0,5 Z " transform="translate(20,17)" style="fill: #FFFFFF;"/><path d="M0,0 L1,0 L1,1 L2,1 L2,2 L3,2 L3,4 L2,4 L2,3 L1,3 L1,2 L0,2 L0,3 L-1,3 L-1,1 L0,1 Z " transform="translate(22,13)" style="fill: #FFFFFF;"/><path d="M0,0 L2,0 L2,5 L3,5 L3,10 L4,10 L4,13 L3,13 L3,11 L2,11 L2,6 L1,6 L1,2 L0,2 L0,3 L-1,3 L-1,1 L0,1 Z " transform="translate(41,11)" style="fill: #FFFFFF;"/></svg>